:FULLY-SPECIFIED
:FORCE-ALL-JOINTS-BE-3DOF
:DEGREES
747
root 4.06968 16.9684 14.3425 -165.719 2.44748 -173.793
lfemur -29.2826 -1.26669 -13.7585
ltibia 39.9231 -0 0
lfoot -28.4642 6.41909 0.140825
ltoes 5.15408 -0 0
rfemur -27.12 -32.9662 8.31042
rtibia 108.42 -0 0
rfoot 14.4215 4.69805 0.555148
rtoes 14.0599 -0 0
lowerback 1.77018 7.24846 -1.46672
upperback -1.67673 9.60767 -1.15487
thorax -2.75246 4.80938 -0.799475
lowerneck -6.72196 -8.37853 -0.923834
upperneck -1.99642 -11.2656 4.66841
head 0.827484 -5.63913 1.26478
lclavicle 3.97569e-016 1.90833e-014 0
lhumerus -57.9795 -4.63703 72.6819
lradius 48.5202 -0 0
lwrist 16.7621 0 0
lhand -26.8697 -3.84964 -0.00999755
lfingers 7.12502 -0 0
lthumb -0.294263 26.1273 -0.00978763
rclavicle 3.97569e-016 1.90833e-014 0
rhumerus 31.0997 36.4807 -63.174
rradius 95.8861 -0 0
rwrist -2.76078 0 0
rhand -24.3673 -22.8296 -0.00487554
rfingers 7.12502 -0 0
rthumb 2.12261 -52.7985 -0.00469535
748
root 3.99261 16.9414 14.4764 -166.892 9.19034 -175.218
lfemur -29.5089 -0.481334 -14.116
ltibia 39.9478 -0 0
lfoot -28.8216 7.0572 0.209026
ltoes 5.36372 -0 0
rfemur -26.8328 -33.2611 8.78161
rtibia 107.383 -0 0
rfoot 13.5678 3.94614 0.879188
rtoes 12.8991 -0 0
lowerback 1.69764 7.28044 -1.48504
upperback -1.6763 9.65251 -1.22828
thorax -2.70404 4.83166 -0.864265
lowerneck -6.68346 -8.38612 -0.922969
upperneck -2.04023 -11.2698 4.70722
head 0.809229 -5.63968 1.27869
lclavicle 3.97569e-016 1.90833e-014 0
lhumerus -58.3972 -4.32854 73.7132
lradius 49.1117 -0 0
lwrist 16.521 0 0
lhand -26.7648 -3.94592 -0.0168993
lfingers 7.12502 -0 0
lthumb -0.192926 26.0296 -0.0164957
rclavicle 3.97569e-016 1.90833e-014 0
rhumerus 30.4577 37.7392 -64.1923
rradius 95.4956 -0 0
rwrist -2.44012 0 0
rhand -24.2759 -22.5895 -0.00604708
rfingers 7.12502 -0 0
rthumb 2.21094 -52.5576 -0.00583062
749
root 3.91554 16.9144 14.6102 -168.059 15.3819 -176.567
lfemur -29.7714 0.363358 -14.4563
ltibia 40.0686 -0 0
lfoot -29.1211 7.73664 0.275284
ltoes 5.67899 -0 0
rfemur -26.5314 -33.5096 9.28186
rtibia 106.19 -0 0
rfoot 12.6364 3.01936 1.22281
rtoes 11.6854 -0 0
lowerback 1.62921 7.29236 -1.50871
upperback -1.67541 9.67033 -1.31266
thorax -2.65656 4.84055 -0.935563
lowerneck -6.6403 -8.39069 -0.927805
upperneck -2.08474 -11.2689 4.75313
head 0.790453 -5.63719 1.29615
lclavicle 3.97569e-016 1.90833e-014 0
lhumerus -58.729 -4.10058 74.7304
lradius 49.7659 -0 0
lwrist 16.2653 0 0
lhand -26.6362 -4.05613 -0.0247525
lfingers 7.12502 -0 0
lthumb -0.0687661 25.9179 -0.024109
rclavicle 3.97569e-016 1.90833e-014 0
rhumerus 29.6056 38.9731 -65.2817
rradius 95.0762 -0 0
rwrist -2.10136 0 0
rhand -24.1857 -22.354 -0.0064737
rfingers 7.12502 -0 0
rthumb 2.29804 -52.3213 -0.00625234
750
root 3.83847 16.8874 14.7441 -169.203 21.0564 -177.839
lfemur -30.0677 1.26089 -14.7808
ltibia 40.2786 -0 0
lfoot -29.3652 8.45255 0.339086
ltoes 6.09198 -0 0
rfemur -26.2166 -33.7135 9.80825
rtibia 104.852 -0 0
rfoot 11.6311 1.93008 1.57724
rtoes 10.4241 -0 0
lowerback 1.5648 7.28549 -1.53698
upperback -1.674 9.66286 -1.407
thorax -2.60997 4.83692 -1.01287
lowerneck -6.5929 -8.39218 -0.937808
upperneck -2.12975 -11.2626 4.80538
head 0.771228 -5.63172 1.31681
lclavicle 3.97569e-016 1.90833e-014 0
lhumerus -58.9817 -3.94995 75.7342
lradius 50.4771 -0 0
lwrist 15.9968 0 0
lhand -26.4854 -4.17874 -0.0333108
lfingers 7.12502 -0 0
lthumb 0.0768677 25.7935 -0.0323907
rclavicle 3.97569e-016 1.90833e-014 0
rhumerus 28.5482 40.1762 -66.4481
rradius 94.6297 -0 0
rwrist -1.74641 0 0
rhand -24.0966 -22.1235 -0.00622996
rfingers 7.12502 -0 0
rthumb 2.3841 -52.09 -0.00603169
751
root 3.7614 16.8605 14.8779 -170.307 26.2486 -179.026
lfemur -30.3958 2.20481 -15.091
ltibia 40.5705 -0 0
lfoot -29.5567 9.20005 0.399834
ltoes 6.59478 -0 0
rfemur -25.8889 -33.8744 10.3578
rtibia 103.38 -0 0
rfoot 10.5559 0.690865 1.93368
rtoes 9.12054 -0 0
lowerback 1.50433 7.2611 -1.56916
upperback -1.67194 9.63184 -1.5103
thorax -2.56419 4.82163 -1.09567
lowerneck -6.54167 -8.39055 -0.952441
upperneck -2.17508 -11.2512 4.86324
head 0.751629 -5.62332 1.34034
lclavicle 3.97569e-016 1.90833e-014 0
lhumerus -59.1621 -3.87314 76.7243
lradius 51.2399 -0 0
lwrist 15.7175 0 0
lhand -26.3138 -4.31222 -0.0423262
lfingers 7.12502 -0 0
lthumb 0.242626 25.6582 -0.0411026
rclavicle 3.97569e-016 1.90833e-014 0
rhumerus 27.2905 41.3422 -67.6965
rradius 94.1582 -0 0
rwrist -1.37715 0 0
rhand -24.0084 -21.8985 -0.00539052
rfingers 7.12502 -0 0
rthumb 2.46925 -51.8642 -0.00523997
752
root 3.68433 16.8335 15.0118 -171.349 30.9932 179.884
lfemur -30.7534 3.1887 -15.3884
ltibia 40.9373 -0 0
lfoot -29.6982 9.97427 0.45687
ltoes 7.17947 -0 0
rfemur -25.549 -33.9939 10.9276
rtibia 101.783 -0 0
rfoot 9.41545 -0.685429 2.28351
rtoes 7.78018 -0 0
lowerback 1.44774 7.22049 -1.60454
upperback -1.66915 9.579 -1.62158
thorax -2.51918 4.79555 -1.18348
lowerneck -6.48703 -8.38575 -0.971168
upperneck -2.22051 -11.2347 4.92596
head 0.731731 -5.61206 1.3664
lclavicle 3.97569e-016 1.90833e-014 0
lhumerus -59.2769 -3.86643 77.7007
lradius 52.0486 -0 0
lwrist 15.4293 0 0
lhand -26.1227 -4.45503 -0.0515539
lfingers 7.12502 -0 0
lthumb 0.427158 25.5133 -0.0500096
rclavicle 3.97569e-016 1.90833e-014 0
rhumerus 25.8386 42.4646 -69.0309
rradius 93.6637 -0 0
rwrist -0.995502 0 0
rhand -23.921 -21.6796 -0.00403008
rfingers 7.12502 -0 0
rthumb 2.55367 -51.6444 -0.00394854
753
root 3.60726 16.8065 15.1456 -172.311 35.3249 178.907
lfemur -31.1383 4.20619 -15.6743
ltibia 41.372 -0 0
lfoot -29.7924 10.7703 0.509513
ltoes 7.83816 -0 0
rfemur -25.1974 -34.0737 11.5147
rtibia 100.074 -0 0
rfoot 8.21451 -2.18565 2.61839
rtoes 6.40833 -0 0
lowerback 1.39495 7.16492 -1.64241
upperback -1.66552 9.50606 -1.73983
thorax -2.47487 4.75954 -1.27577
lowerneck -6.42939 -8.37775 -0.99345
upperneck -2.26586 -11.2131 4.99279
head 0.711608 -5.59798 1.39464
lclavicle 3.97569e-016 1.90833e-014 0
lhumerus -59.3321 -3.92583 78.6626
lradius 52.8976 -0 0
lwrist 15.134 0 0
lhand -25.9136 -4.60562 -0.0607562
lfingers 7.12502 -0 0
lthumb 0.629113 25.3606 -0.0588829
rclavicle 3.97569e-016 1.90833e-014 0
rhumerus 24.199 43.5371 -70.4541
rradius 93.1481 -0 0
rwrist -0.603365 0 0
rhand -23.8342 -21.4671 -0.00222331
rfingers 7.12502 -0 0
rthumb 2.6375 -51.4312 -0.00222877
754
root 3.53019 16.7796 15.2795 -173.17 39.2776 178.059
lfemur -31.5483 5.25095 -15.9498
ltibia 41.8673 -0 0
lfoot -29.8421 11.5832 0.557079
ltoes 8.56292 -0 0
rfemur -24.8347 -34.1152 12.1161
rtibia 98.2625 -0 0
rfoot 6.95852 -3.7963 2.93043
rtoes 5.01035 -0 0
lowerback 1.34589 7.09569 -1.68209
upperback -1.66095 9.41478 -1.86407
thorax -2.4312 4.71445 -1.37205
lowerneck -6.36918 -8.36648 -1.01875
upperneck -2.31094 -11.1864 5.06299
head 0.691335 -5.58115 1.42473
lclavicle 3.97569e-016 1.90833e-014 0
lhumerus -59.3341 -4.04716 79.6093
lradius 53.7813 -0 0
lwrist 14.8337 0 0
lhand -25.6878 -4.76247 -0.0697058
lfingers 7.12502 -0 0
lthumb 0.847137 25.2014 -0.067504
rclavicle 3.97569e-016 1.90833e-014 0
rhumerus 22.38 44.5531 -71.9673
rradius 92.6135 -0 0
rwrist -0.202643 0 0
rhand -23.7478 -21.2617 -4.48212e-005
rfingers 7.12502 -0 0
rthumb 2.72092 -51.2249 -0.000151964
755
root 3.45312 16.7526 15.4133 -173.903 42.8848 177.361
lfemur -31.9809 6.31664 -16.2162
ltibia 42.4162 -0 0
lfoot -29.85 12.4082 0.59891
ltoes 9.34584 -0 0
rfemur -24.4614 -34.1202 12.7288
rtibia 96.3594 -0 0
rfoot 5.65345 -5.50352 3.21236
rtoes 3.59161 -0 0
lowerback 1.30046 7.01408 -1.72288
upperback -1.65535 9.30688 -1.99329
thorax -2.38811 4.66114 -1.4718
lowerneck -6.30682 -8.35192 -1.04653
upperneck -2.35553 -11.1548 5.13583
head 0.670987 -5.56162 1.45631
lclavicle 3.97569e-016 1.90833e-014 0
lhumerus -59.2885 -4.22599 80.5397
lradius 54.6941 -0 0
lwrist 14.5302 0 0
lhand -25.4469 -4.92403 -0.0781891
lfingers 7.12502 -0 0
lthumb 1.07988 25.0373 -0.0756677
rclavicle 3.97569e-016 1.90833e-014 0
rhumerus 20.3911 45.5066 -73.5697
rradius 92.0617 -0 0
rwrist 0.204761 0 0
rhand -23.6617 -21.0638 0.00243091
rfingers 7.12502 -0 0
rthumb 2.80407 -51.0261 0.00221068
756
root 3.37605 16.7256 15.5472 -174.488 46.1785 176.831
lfemur -32.4339 7.39699 -16.4743
ltibia 43.0116 -0 0
lfoot -29.8188 13.2401 0.634392
ltoes 10.179 -0 0
rfemur -24.0781 -34.09 13.3499
rtibia 94.3755 -0 0
rfoot 4.3058 -7.29306 3.45764
rtoes 2.15747 -0 0
lowerback 1.2586 6.92138 -1.76409
upperback -1.64861 9.1841 -2.12651
thorax -2.34555 4.60048 -1.57451
lowerneck -6.24272 -8.33401 -1.07625
upperneck -2.39945 -11.1182 5.21054
head 0.650638 -5.53945 1.48906
lclavicle 3.97569e-016 1.90833e-014 0
lhumerus -59.2011 -4.45769 81.4528
lradius 55.6304 -0 0
lwrist 14.2255 0 0
lhand -25.192 -5.08874 -0.0860093
lfingers 7.12502 -0 0
lthumb 1.32597 24.8699 -0.0831847
rclavicle 3.97569e-016 1.90833e-014 0
rhumerus 18.2437 46.3917 -75.2589
rradius 91.4949 -0 0
rwrist 0.616943 0 0
rhand -23.5758 -20.8739 0.00512968
rfingers 7.12502 -0 0
rthumb 2.88711 -50.8353 0.00478817
757
root 3.29898 16.6986 15.681 -174.902 49.1896 176.49
lfemur -32.9049 8.48573 -16.7249
ltibia 43.6464 -0 0
lfoot -29.7515 14.0742 0.66298
ltoes 11.0545 -0 0
rfemur -23.6855 -34.0261 13.9764
rtibia 92.3216 -0 0
rfoot 2.92263 -9.15033 3.66059
rtoes 0.713286 -0 0
lowerback 1.22022 6.81888 -1.80506
upperback -1.64067 9.04817 -2.26274
thorax -2.30347 4.53333 -1.67967
lowerneck -6.1773 -8.31271 -1.10737
upperneck -2.44251 -11.0767 5.2864
head 0.630363 -5.51471 1.52262
lclavicle 3.97569e-016 1.90833e-014 0
lhumerus -59.0772 -4.73743 82.3473
lradius 56.5847 -0 0
lwrist 13.9214 0 0
lhand -24.9248 -5.25508 -0.0929884
lfingers 7.12502 -0 0
lthumb 1.58407 24.7007 -0.0898841
rclavicle 3.97569e-016 1.90833e-014 0
rhumerus 15.9509 47.2029 -77.0299
rradius 90.9149 -0 0
rwrist 1.032 0 0
rhand -23.4897 -20.6925 0.00797759
rfingers 7.12502 -0 0
rthumb 2.97019 -50.6529 0.00750986
758
root 3.22191 16.6717 15.8149 -175.123 51.9474 176.357
lfemur -33.3915 9.57663 -16.9686
ltibia 44.3135 -0 0
lfoot -29.6507 14.9053 0.684212
ltoes 11.9645 -0 0
rfemur -23.284 -33.93 14.6055
rtibia 90.2083 -0 0
rfoot 1.51147 -11.0604 3.81654
rtoes -0.735575 0 0
lowerback 1.18521 6.70787 -1.84509
upperback -1.63145 8.90083 -2.40099
thorax -2.26181 4.46053 -1.78676
lowerneck -6.11098 -8.28799 -1.13936
upperneck -2.48449 -11.0304 5.36265
head 0.610236 -5.48745 1.55666
lclavicle 3.97569e-016 1.90833e-014 0
lhumerus -58.922 -5.06018 83.2222
lradius 57.5513 -0 0
lwrist 13.6199 0 0
lhand -24.6465 -5.42149 -0.0989696
lfingers 7.12502 -0 0
lthumb 1.85282 24.5313 -0.0956154
rclavicle 3.97569e-016 1.90833e-014 0
rhumerus 13.5283 47.9356 -78.8756
rradius 90.3238 -0 0
rwrist 1.44802 0 0
rhand -23.4035 -20.5201 0.0109013
rfingers 7.12502 -0 0
rthumb 3.05348 -50.4794 0.0103055
